:SAMPLES-PER-SECOND 30
:FULLY-SPECIFIED
:DEGREES
82
root  3.48534 37.8481 -5.40446 -101.032 -82.7534 97.1423
RightUpLeg  -15.9079 4.79659 -14.3767
RightLeg  76.8453 -2.63675 -14.3403
RightFoot  -2.38137 0.0265469 -0.5325
RightToes  3.49245e-010 0 -3.6325e-017
Spine  12.3133 1.44852 -4.64617
Spine1  5.94153 1.80075 -2.74933
HEad  -22.4582 -1.76623 1.38368
LeftShoulder1  8.3248 -11.2875 -49.1277
LeftArm  -6.54851 22.9729 -22.2435
LeftForeArm  -179.101 -63.9739 -160.983
LeftHand  -0.244104 0.0205437 5.32207
RightShoulder  6.94371 9.94887 45.0867
RightArm  2.22585 -24.2093 33.041
RightForeArm  147.653 76.7352 135.017
RightHand  0.0729489 -12.6343 -2.20963
LeftUpLeg  -10.8308 8.62682 -13.6577
LeftLeg  34.639 6.9981 5.54022
LeftFoot  -20.9117 0.622023 5.87589
LeftToes  1.68253e-010 -2.29257e-011 3.59052e-011
83
root  1.17717 38.4105 -5.34592 -106.849 -85.3926 103.719
RightUpLeg  -20.1237 1.9559 -11.4588
RightLeg  71.0991 -4.56025 -15.3654
RightFoot  -3.66874 -0.0279347 0.0421358
RightToes  3.49245e-010 0 -3.6325e-017
Spine  11.1979 -0.215098 -4.38921
Spine1  5.65333 -0.834115 1.03908
HEad  -21.6349 1.47249 -0.2832
LeftShoulder1  8.37113 -11.542 -48.5614
LeftArm  -5.16522 21.1383 -25.9204
LeftForeArm  -175.728 -63.0459 -161.994
LeftHand  -0.244104 0.0205437 5.32207
RightShoulder  6.4623 9.51627 43.2502
RightArm  3.49312 -31.2792 30.3808
RightForeArm  148.506 75.0133 140.255
RightHand  0.137467 -11.9952 -3.47672
LeftUpLeg  -5.33364 8.65898 -10.3662
LeftLeg  29.9963 7.01326 4.7102
LeftFoot  -20.9343 0.577215 5.39193
LeftToes  1.68253e-010 -2.29257e-011 3.59052e-011
84
root  -1.25072 39.2455 -5.29654 -140.379 -88.0283 138.136
RightUpLeg  -21.8288 -1.68391 -6.80186
RightLeg  60.3833 -7.36011 -14.2966
RightFoot  -5.41327 -0.0728591 0.724373
RightToes  3.49245e-010 0 -3.6325e-017
Spine  10.1179 -2.16615 -3.69336
Spine1  4.76943 -3.78794 5.27267
HEad  -20.3129 5.56917 -2.6098
LeftShoulder1  8.16537 -11.4556 -47.6305
LeftArm  -3.00386 21.1213 -29.795
LeftForeArm  -175.256 -60.9125 -163.55
LeftHand  -0.244104 0.0205437 5.32207
RightShoulder  5.6169 8.78489 39.5804
RightArm  9.98628 -36.63 25.6187
RightForeArm  144.91 71.9967 146.57
RightHand  0.168609 -10.3109 -5.05762
LeftUpLeg  0.66329 8.91592 -6.11965
LeftLeg  23.9313 6.30976 3.45425
LeftFoot  -18.191 0.344028 3.81938
LeftToes  1.68253e-010 -2.29257e-011 3.59052e-011
85
root  -3.77534 40.1287 -5.31824 151.811 -87.5396 -152.804
RightUpLeg  -22.051 -5.13716 -2.35495
RightLeg  45.4657 -8.48238 -9.54562
RightFoot  -6.38958 -0.148821 2.37643
RightToes  3.49245e-010 0 -3.6325e-017
Spine  8.36009 -3.67735 -2.95626
Spine1  4.00702 -5.83889 7.90591
HEad  -18.3349 9.45 -4.02968
LeftShoulder1  7.88759 -11.2191 -46.7315
LeftArm  0.355581 20.6337 -31.5915
LeftForeArm  -177.053 -59.4317 -164.327
LeftHand  -0.244104 0.0205437 5.32207
RightShoulder  4.95946 8.33133 35.9427
RightArm  16.073 -40.4456 21.0473
RightForeArm  142.717 69.9154 149.816
RightHand  0.155679 -9.71073 -5.3685
LeftUpLeg  5.8404 11.0175 -2.12597
LeftLeg  18.3063 4.72868 1.75915
LeftFoot  -13.0574 0.0952191 0.242992
LeftToes  1.68253e-010 -2.29257e-011 3.59052e-011
86
root  -6.32636 40.7942 -5.39568 153.127 -85.3809 -152.623
RightUpLeg  -21.7646 -8.91664 1.43079
RightLeg  29.318 -5.90368 -4.0072
RightFoot  -6.05512 -0.25241 4.57509
RightToes  3.49245e-010 0 -3.6325e-017
Spine  5.7859 -4.3773 -1.6439
Spine1  3.79579 -6.41511 7.8756
HEad  -15.763 12.0096 -4.01148
LeftShoulder1  7.66789 -11.1198 -45.7101
LeftArm  4.23255 18.9512 -31.5677
LeftForeArm  -177.335 -58.4809 -164.859
LeftHand  -0.244104 0.0205437 5.32207
RightShoulder  4.82243 8.70042 33.5773
RightArm  17.8242 -45.0479 18.1482
RightForeArm  147.599 68.5084 152.464
RightHand  0.117312 -10.2275 -3.98923
LeftUpLeg  9.14417 13.0118 0.577586
LeftLeg  15.2855 4.60383 0.164544
LeftFoot  -5.42288 0.180839 -2.9984
LeftToes  1.68253e-010 -2.29257e-011 3.59052e-011
87
root  -8.79478 41.0829 -5.488 161.979 -83.8208 -160.726
RightUpLeg  -20.8232 -11.5496 3.94784
RightLeg  16.3349 -3.15772 -0.320043
RightFoot  -6.81045 -0.277947 5.88631
RightToes  3.49245e-010 0 -3.6325e-017
Spine  4.01177 -4.44501 0.103479
Spine1  4.13735 -6.03074 6.21461
HEad  -14.0551 13.046 -3.55853
LeftShoulder1  7.49663 -11.1416 -44.5801
LeftArm  7.50039 16.1368 -31.1964
LeftForeArm  -175.434 -57.5546 -165.534
LeftHand  -0.244104 0.0205437 5.32207
RightShoulder  4.99041 9.53001 32.346
RightArm  15.6327 -49.9602 17.5849
RightForeArm  151.735 67.2961 154.509
RightHand  0.104545 -10.6756 -3.42144
LeftUpLeg  10.5378 15.3031 1.58717
LeftLeg  16.7388 3.49169 0.304656
LeftFoot  1.81814 0.492172 -4.3984
LeftToes  1.68253e-010 -2.29257e-011 3.59052e-011
